<?xml version="1.0" encoding="utf-8"?>
<!-- Generator: Adobe Illustrator 19.0.1, SVG Export Plug-In . SVG Version: 6.00 Build 0)  -->
<svg version="1.1" id="Layer_1" xmlns="http://www.w3.org/2000/svg" xmlns:xlink="http://www.w3.org/1999/xlink" x="0px" y="0px"
	 viewBox="0 0 76 46" style="enable-background:new 0 0 76 46;" xml:space="preserve">
<style type="text/css">
	.st0{fill:#4697e2;}
</style>
<path class="st0" d="M75.5,31.4c-0.2-1.7-1.1-2.7-2.8-2.8H56.2c-0.3-0.3-0.6-0.6-0.9-0.9L43.2,18l1.5-1.4c0.8-0.9,0.8-1.7,0.1-2.6
	l-1.3-1.4c-0.9-0.8-1.8-0.8-2.7-0.1l-6.4,6c-0.5,0.5-1.2,0.7-2,0.7c-0.8,0.1-1.4-0.2-2-0.7c-1.1-1.4-1.1-2.7,0.1-4l7.6-7
	c0.9-0.9,2-1.3,3.2-1.3h6.8c2,0,3.8,0.7,5.3,2l5.6,5.5h13.7c1.7-0.2,2.7-1.1,2.8-2.8c-0.2-1.7-1.1-2.7-2.8-2.8H61.2l-3-3.2
	c-3-2.8-6.5-4.3-10.7-4.3H27.9C23.8,0.6,20.2,2,17.3,4.8l-3,3.2H3.3c-1.7,0.2-2.7,1.1-2.8,2.8c0.2,1.7,1.1,2.7,2.8,2.8h13.4l5-5.3
	C23.2,6.8,25,6,27,6l4.2,0.1l-4.6,4.1c-1.7,1.7-2.6,3.7-2.7,5.9c-0.1,2.3,0.7,4.3,2.2,6.1c0.9,1.1,2.5,2,4.8,2.6
	c2.3,0.5,4.6-0.2,7-2.1l1.1-0.8L51.7,32c0.4,0.4,0.4,0.9,0.1,1.4l-3,3.8c-0.4,0.4-0.8,0.4-1.3,0.1l-2.8-2.2l-3.5,4.2
	c-0.3,0.3-0.7,0.5-1.1,0.6c-0.5,0-0.8-0.1-1.1-0.2l-4.3-3.8l-1.9,2.2c-0.9,1-1.9,1.6-3.2,1.8c-1.2,0.2-2.3-0.2-3.3-0.9L15,28.6H3.3
	c-1.7,0.2-2.7,1.1-2.8,2.8c0.2,1.7,1.1,2.7,2.8,2.8h9.5l10,8.9c1.8,1.5,3.8,2.3,6.1,2.3c2.3,0.1,4.3-0.5,6.2-1.9
	c1.5,1.3,3.1,1.9,4.8,1.9c2.2,0,4.1-0.9,5.7-2.8c1.3,0.5,2.7,0.5,4,0.2c1.4-0.3,2.6-1.1,3.5-2.2l3-3.8c0.7-0.9,1.1-1.8,1.3-2.7h15.2
	C74.4,34.1,75.3,33.2,75.5,31.4L75.5,31.4z"/>
</svg>
