<?xml version="1.0" encoding="utf-8"?>
<!-- Generator: Adobe Illustrator 19.0.1, SVG Export Plug-In . SVG Version: 6.00 Build 0)  -->
<svg version="1.1" id="Layer_1" xmlns="http://www.w3.org/2000/svg" xmlns:xlink="http://www.w3.org/1999/xlink" x="0px" y="0px"
	 viewBox="0 0 60 50" style="enable-background:new 0 0 60 50;" xml:space="preserve">
<style type="text/css">
	.st0{fill:#4697e2;}
</style>
<path class="st0" d="M9.6,14.8L18,5.4c1-1.4,0.9-2.7-0.2-4c-1.4-1-2.7-0.9-4,0.2L7.4,8.8L4.8,6.3c-1.3-1.1-2.7-1.1-4,0
	c-1.1,1.3-1.1,2.6,0,3.9l4.7,4.7c0.5,0.7,1.2,1,2.1,0.8C8.4,15.7,9.1,15.4,9.6,14.8L9.6,14.8z M9.6,33.6l8.4-9.4
	c1-1.4,0.9-2.7-0.2-4c-1.4-1-2.7-0.9-4,0.2l-6.4,7.1L4.8,25c-1.3-1.1-2.7-1.1-4,0c-1.1,1.3-1.1,2.6,0,3.9l4.7,4.7
	c0.5,0.7,1.2,1,2.1,0.8C8.4,34.5,9.1,34.2,9.6,33.6L9.6,33.6z M25.3,11.1h31.9c1.7-0.2,2.7-1.1,2.8-2.8c-0.2-1.7-1.1-2.7-2.8-2.8
	H25.3c-1.7,0.2-2.7,1.1-2.8,2.8C22.7,10,23.6,10.9,25.3,11.1L25.3,11.1z M22.5,27c0.2,1.7,1.1,2.7,2.8,2.8h31.9
	c1.7-0.2,2.7-1.1,2.8-2.8c-0.2-1.7-1.1-2.7-2.8-2.8H25.3C23.6,24.3,22.7,25.3,22.5,27L22.5,27z M18.8,45.8c0.2,1.7,1.1,2.7,2.8,2.8
	h35.6c1.7-0.2,2.7-1.1,2.8-2.8c-0.2-1.7-1.1-2.7-2.8-2.8H21.6C19.8,43.1,18.9,44,18.8,45.8L18.8,45.8z M7.5,49.5
	c1.1,0,2-0.4,2.7-1.1c0.7-0.7,1.1-1.6,1.1-2.7c0-1.1-0.4-2-1.1-2.7C9.5,42.4,8.6,42,7.5,42c-1.1,0-2,0.4-2.7,1.1
	c-0.7,0.7-1.1,1.6-1.1,2.7c0,1.1,0.4,2,1.1,2.7C5.5,49.1,6.4,49.5,7.5,49.5L7.5,49.5L7.5,49.5z"/>
</svg>
