<?xml version="1.0" encoding="utf-8"?>
<!-- Generator: Adobe Illustrator 19.0.1, SVG Export Plug-In . SVG Version: 6.00 Build 0)  -->
<svg version="1.1" id="Layer_1" xmlns="http://www.w3.org/2000/svg" xmlns:xlink="http://www.w3.org/1999/xlink" x="0px" y="0px"
	 viewBox="0 0 60 54" style="enable-background:new 0 0 60 54;" xml:space="preserve">
<style type="text/css">
	.st0{fill:#4697e2;}
</style>
<path class="st0" d="M5.6,44.8V3.6C5.5,1.8,4.5,0.9,2.8,0.8C1.1,0.9,0.2,1.8,0,3.6v41.3c0.1,2.4,0.9,4.4,2.5,6
	c1.6,1.6,3.6,2.4,6,2.5h48.8c1.7-0.2,2.7-1.1,2.8-2.8c-0.2-1.7-1.1-2.7-2.8-2.8H8.4C6.7,47.5,5.8,46.5,5.6,44.8L5.6,44.8z
	 M39.4,32.6l15.9-15.9c1.2-1.2,1.2-2.5,0-3.9c-1.3-1.1-2.5-1.1-3.9,0L37.5,26.8l-9.4-9.3c-0.5-0.5-1.1-0.8-2-0.8
	c-0.7,0-1.3,0.3-1.9,0.8L13,28.8c-1.1,1.3-1.1,2.6,0,3.9c1.3,1.2,2.6,1.2,3.9,0l9.3-9.1l9.4,9.1C36.8,33.8,38.1,33.8,39.4,32.6
	L39.4,32.6z"/>
</svg>
