<?xml version="1.0" encoding="utf-8"?>
<!-- Generator: Adobe Illustrator 19.0.1, SVG Export Plug-In . SVG Version: 6.00 Build 0)  -->
<svg version="1.1" id="Layer_1" xmlns="http://www.w3.org/2000/svg" xmlns:xlink="http://www.w3.org/1999/xlink" x="0px" y="0px"
	 viewBox="0 0 250 200" style="enable-background:new 0 0 250 200;" xml:space="preserve">
<style type="text/css">
	.st0{fill:#FFFFFF;}
</style>
<path class="st0" d="M43.8,25.5v100h93.8v25H18.8c-5.2-0.3-9.6-2.1-13.3-5.5c-3.4-3.6-5.2-8.1-5.5-13.3c0.3-3.9,2.3-6,6.3-6.3H25
	v-100c0.3-7,2.7-12.9,7.4-17.6S43,0.8,50,0.5h125c7,0.3,12.9,2.7,17.6,7.4s7.2,10.5,7.4,17.6V38h-18.8V25.5c-0.3-3.9-2.3-6-6.3-6.3
	H50C46.1,19.5,44,21.6,43.8,25.5L43.8,25.5z M225,50.5c7,0.3,12.9,2.7,17.6,7.4s7.2,10.5,7.4,17.6v100c-0.3,7-2.7,12.9-7.4,17.6
	s-10.5,7.2-17.6,7.4h-50c-7-0.3-12.9-2.7-17.6-7.4s-7.2-10.5-7.4-17.6v-100c0.3-7,2.7-12.9,7.4-17.6s10.5-7.2,17.6-7.4H225L225,50.5
	z M231.3,175.5v-100c-0.3-3.9-2.3-6-6.3-6.3h-50c-3.9,0.3-6,2.3-6.3,6.3v100c0.3,3.9,2.3,6,6.3,6.3h50
	C228.9,181.5,231,179.4,231.3,175.5L231.3,175.5z"/>
</svg>
